<svg xmlns="http://www.w3.org/2000/svg" viewBox="0 0 900 520" fill="none">
  <defs>
    <style>
      .heading { font-family: Georgia, 'Times New Roman', serif; }
      .ui { font-family: -apple-system, 'Segoe UI', Helvetica, Arial, sans-serif; }
    </style>
    <clipPath id="round"><rect width="900" height="520" rx="16"/></clipPath>
  </defs>
  <g clip-path="url(#round)">
    <!-- Background -->
    <rect width="900" height="520" fill="#faf7f2"/>

    <!-- Sidebar -->
    <rect width="180" height="520" fill="#2c2418"/>
    <text x="30" y="38" class="heading" fill="#faf7f2" font-size="22" font-weight="700">rumo<tspan fill="#c4653a">.</tspan></text>

    <!-- Sidebar nav items -->
    <rect x="16" y="68" width="148" height="36" rx="8" fill="rgba(196,101,58,0.15)"/>
    <text x="44" y="91" class="ui" fill="#c4653a" font-size="13" font-weight="600">Overview</text>
    <rect x="24" y="78" width="14" height="14" rx="3" fill="#c4653a" opacity="0.6"/>

    <text x="44" y="127" class="ui" fill="#faf7f2" font-size="13" opacity="0.5">Reservations</text>
    <rect x="24" y="115" width="14" height="14" rx="3" fill="#faf7f2" opacity="0.2"/>

    <text x="44" y="163" class="ui" fill="#faf7f2" font-size="13" opacity="0.5">Calendar</text>
    <rect x="24" y="151" width="14" height="14" rx="3" fill="#faf7f2" opacity="0.2"/>

    <text x="44" y="199" class="ui" fill="#faf7f2" font-size="13" opacity="0.5">Guests</text>
    <rect x="24" y="187" width="14" height="14" rx="3" fill="#faf7f2" opacity="0.2"/>

    <text x="44" y="235" class="ui" fill="#faf7f2" font-size="13" opacity="0.5">Invoices</text>
    <rect x="24" y="223" width="14" height="14" rx="3" fill="#faf7f2" opacity="0.2"/>

    <text x="44" y="271" class="ui" fill="#faf7f2" font-size="13" opacity="0.5">Housekeeping</text>
    <rect x="24" y="259" width="14" height="14" rx="3" fill="#faf7f2" opacity="0.2"/>

    <text x="44" y="307" class="ui" fill="#faf7f2" font-size="13" opacity="0.5">Reports</text>
    <rect x="24" y="295" width="14" height="14" rx="3" fill="#faf7f2" opacity="0.2"/>

    <text x="44" y="343" class="ui" fill="#faf7f2" font-size="13" opacity="0.5">Handbook</text>
    <rect x="24" y="331" width="14" height="14" rx="3" fill="#faf7f2" opacity="0.2"/>

    <!-- Rudy button bottom sidebar -->
    <rect x="16" y="472" width="148" height="36" rx="18" fill="#c4653a"/>
    <text x="56" y="495" class="ui" fill="#fff" font-size="13" font-weight="600">Ask Rudy</text>
    <circle cx="38" cy="490" r="10" fill="rgba(255,255,255,0.2)"/>
    <text x="34" y="494" class="ui" fill="#fff" font-size="10" font-weight="700">R</text>

    <!-- Main content area -->
    <rect x="180" y="0" width="720" height="520" fill="#faf7f2"/>

    <!-- Top bar -->
    <rect x="180" y="0" width="720" height="56" fill="#fff"/>
    <line x1="180" y1="56" x2="900" y2="56" stroke="#e8e4df" stroke-width="1"/>
    <text x="210" y="35" class="heading" fill="#2c2418" font-size="18" font-weight="700">Reservations</text>
    <text x="370" y="35" class="ui" fill="#2c2418" font-size="13" opacity="0.4">Overview of all rooms and upcoming reservations</text>

    <!-- Date tabs -->
    <rect x="210" y="70" width="40" height="28" rx="6" fill="#fff" stroke="#e8e4df"/>
    <text x="222" y="89" class="ui" fill="#2c2418" font-size="11" font-weight="500">All</text>
    <rect x="258" y="70" width="80" height="28" rx="6" fill="#fff" stroke="#e8e4df"/>
    <text x="272" y="89" class="ui" fill="#2c2418" font-size="11">Arriving (7)</text>
    <rect x="346" y="70" width="80" height="28" rx="6" fill="#fff" stroke="#e8e4df"/>
    <text x="358" y="89" class="ui" fill="#2c2418" font-size="11">Leaving (3)</text>
    <rect x="434" y="70" width="90" height="28" rx="6" fill="#c4653a"/>
    <text x="444" y="89" class="ui" fill="#fff" font-size="11" font-weight="600">In-house (24)</text>

    <!-- Week header -->
    <rect x="210" y="115" width="660" height="40" rx="0" fill="#fff"/>
    <line x1="210" y1="155" x2="870" y2="155" stroke="#e8e4df"/>

    <!-- Day columns -->
    <text x="270" y="139" class="ui" fill="#2c2418" font-size="11" opacity="0.4" text-anchor="middle">Mon</text>
    <text x="370" y="139" class="ui" fill="#2c2418" font-size="11" opacity="0.4" text-anchor="middle">Tue</text>
    <text x="470" y="139" class="ui" fill="#2c2418" font-size="11" opacity="0.4" text-anchor="middle">Wed</text>
    <text x="570" y="139" class="ui" fill="#2c2418" font-size="11" opacity="0.4" text-anchor="middle">Thu</text>
    <text x="670" y="139" class="ui" fill="#c4653a" font-size="11" font-weight="600" text-anchor="middle">Today</text>
    <text x="770" y="139" class="ui" fill="#2c2418" font-size="11" opacity="0.4" text-anchor="middle">Sat</text>
    <text x="840" y="139" class="ui" fill="#2c2418" font-size="11" opacity="0.4" text-anchor="middle">Sun</text>

    <text x="270" y="127" class="ui" fill="#2c2418" font-size="12" font-weight="600" text-anchor="middle">14</text>
    <text x="370" y="127" class="ui" fill="#2c2418" font-size="12" font-weight="600" text-anchor="middle">15</text>
    <text x="470" y="127" class="ui" fill="#2c2418" font-size="12" font-weight="600" text-anchor="middle">16</text>
    <text x="570" y="127" class="ui" fill="#2c2418" font-size="12" font-weight="600" text-anchor="middle">17</text>
    <text x="670" y="127" class="ui" fill="#c4653a" font-size="12" font-weight="700" text-anchor="middle">18</text>
    <text x="770" y="127" class="ui" fill="#2c2418" font-size="12" font-weight="600" text-anchor="middle">19</text>
    <text x="840" y="127" class="ui" fill="#2c2418" font-size="12" font-weight="600" text-anchor="middle">20</text>

    <!-- Today indicator line -->
    <line x1="670" y1="115" x2="670" y2="520" stroke="#c4653a" stroke-width="2" opacity="0.3"/>

    <!-- Room rows -->
    <!-- Room 101 -->
    <text x="220" y="178" class="ui" fill="#2c2418" font-size="12" font-weight="600">101</text>
    <rect x="240" y="162" width="350" height="28" rx="6" fill="#c4653a" opacity="0.12"/>
    <rect x="242" y="164" width="3" height="24" rx="1.5" fill="#c4653a"/>
    <text x="254" y="180" class="ui" fill="#2c2418" font-size="11" font-weight="500">Lucas Hermans</text>

    <!-- Room 102 -->
    <text x="220" y="218" class="ui" fill="#2c2418" font-size="12" font-weight="600">102</text>
    <rect x="320" y="202" width="280" height="28" rx="6" fill="#6b8f71" opacity="0.12"/>
    <rect x="322" y="204" width="3" height="24" rx="1.5" fill="#6b8f71"/>
    <text x="334" y="220" class="ui" fill="#2c2418" font-size="11" font-weight="500">Emily Van Damme</text>
    <rect x="690" y="202" width="180" height="28" rx="6" fill="#c4653a" opacity="0.12"/>
    <rect x="692" y="204" width="3" height="24" rx="1.5" fill="#c4653a"/>
    <text x="704" y="220" class="ui" fill="#2c2418" font-size="11" font-weight="500">Maria Wouters</text>

    <!-- Room 103 -->
    <text x="220" y="258" class="ui" fill="#2c2418" font-size="12" font-weight="600">103</text>
    <rect x="440" y="242" width="200" height="28" rx="6" fill="#d4a574" opacity="0.2"/>
    <rect x="442" y="244" width="3" height="24" rx="1.5" fill="#d4a574"/>
    <text x="454" y="260" class="ui" fill="#2c2418" font-size="11" font-weight="500">Jan Dubois</text>

    <!-- Room 104 -->
    <text x="220" y="298" class="ui" fill="#2c2418" font-size="12" font-weight="600">104</text>
    <rect x="240" y="282" width="530" height="28" rx="6" fill="#6b8f71" opacity="0.12"/>
    <rect x="242" y="284" width="3" height="24" rx="1.5" fill="#6b8f71"/>
    <text x="254" y="300" class="ui" fill="#2c2418" font-size="11" font-weight="500">Pieter Peeters</text>
    <!-- Arrival badge -->
    <rect x="364" y="286" width="44" height="20" rx="10" fill="#c4653a"/>
    <text x="372" y="300" class="ui" fill="#fff" font-size="9" font-weight="600">+ IN</text>

    <!-- Room 105 -->
    <text x="220" y="338" class="ui" fill="#2c2418" font-size="12" font-weight="600">105</text>
    <rect x="560" y="322" width="310" height="28" rx="6" fill="#c4653a" opacity="0.12"/>
    <rect x="562" y="324" width="3" height="24" rx="1.5" fill="#c4653a"/>
    <text x="574" y="340" class="ui" fill="#2c2418" font-size="11" font-weight="500">Marie Soto</text>

    <!-- Room 106 -->
    <text x="220" y="378" class="ui" fill="#2c2418" font-size="12" font-weight="600">106</text>
    <rect x="240" y="362" width="250" height="28" rx="6" fill="#d4a574" opacity="0.2"/>
    <rect x="242" y="364" width="3" height="24" rx="1.5" fill="#d4a574"/>
    <text x="254" y="380" class="ui" fill="#2c2418" font-size="11" font-weight="500">Sarah Brown</text>
    <rect x="600" y="362" width="270" height="28" rx="6" fill="#6b8f71" opacity="0.12"/>
    <rect x="602" y="364" width="3" height="24" rx="1.5" fill="#6b8f71"/>
    <text x="614" y="380" class="ui" fill="#2c2418" font-size="11" font-weight="500">Victor De Smedt</text>

    <!-- Room 107 -->
    <text x="220" y="418" class="ui" fill="#2c2418" font-size="12" font-weight="600">107</text>
    <rect x="240" y="402" width="630" height="28" rx="6" fill="#6b8f71" opacity="0.12"/>
    <rect x="242" y="404" width="3" height="24" rx="1.5" fill="#6b8f71"/>
    <text x="254" y="420" class="ui" fill="#2c2418" font-size="11" font-weight="500">Ingrid Dupont</text>

    <!-- Room 108 -->
    <text x="220" y="458" class="ui" fill="#2c2418" font-size="12" font-weight="600">108</text>
    <rect x="340" y="442" width="230" height="28" rx="6" fill="#c4653a" opacity="0.12"/>
    <rect x="342" y="444" width="3" height="24" rx="1.5" fill="#c4653a"/>
    <text x="354" y="460" class="ui" fill="#2c2418" font-size="11" font-weight="500">Thomas Janssens</text>
    <rect x="690" y="442" width="180" height="28" rx="6" fill="#d4a574" opacity="0.2"/>
    <rect x="692" y="444" width="3" height="24" rx="1.5" fill="#d4a574"/>
    <text x="704" y="460" class="ui" fill="#2c2418" font-size="11" font-weight="500">Adam Maes</text>

    <!-- Room 109 -->
    <text x="220" y="498" class="ui" fill="#2c2418" font-size="12" font-weight="600">109</text>
    <rect x="240" y="482" width="480" height="28" rx="6" fill="#d4a574" opacity="0.2"/>
    <rect x="242" y="484" width="3" height="24" rx="1.5" fill="#d4a574"/>
    <text x="254" y="500" class="ui" fill="#2c2418" font-size="11" font-weight="500">Lucas Weber</text>

    <!-- Row dividers -->
    <line x1="210" y1="195" x2="870" y2="195" stroke="#e8e4df" stroke-width="0.5"/>
    <line x1="210" y1="235" x2="870" y2="235" stroke="#e8e4df" stroke-width="0.5"/>
    <line x1="210" y1="275" x2="870" y2="275" stroke="#e8e4df" stroke-width="0.5"/>
    <line x1="210" y1="315" x2="870" y2="315" stroke="#e8e4df" stroke-width="0.5"/>
    <line x1="210" y1="355" x2="870" y2="355" stroke="#e8e4df" stroke-width="0.5"/>
    <line x1="210" y1="395" x2="870" y2="395" stroke="#e8e4df" stroke-width="0.5"/>
    <line x1="210" y1="435" x2="870" y2="435" stroke="#e8e4df" stroke-width="0.5"/>
    <line x1="210" y1="475" x2="870" y2="475" stroke="#e8e4df" stroke-width="0.5"/>
  </g>
</svg>